<?xml version="1.0" standalone="no"?>
<!DOCTYPE svg PUBLIC "-//W3C//DTD SVG 20010904//EN"
 "http://www.w3.org/TR/2001/REC-SVG-20010904/DTD/svg10.dtd">
<svg version="1.0" xmlns="http://www.w3.org/2000/svg"
 width="1563.000000pt" height="625.000000pt" viewBox="0 0 1563.000000 625.000000"
 preserveAspectRatio="xMidYMid meet">

<g transform="translate(0.000000,625.000000) scale(0.100000,-0.100000)"
fill="#000000" stroke="none">
<path d="M3295 6030 c-223 -45 -412 -224 -481 -456 -17 -54 -18 -138 -23
-1046 l-6 -987 -166 -173 c-91 -95 -169 -183 -173 -194 -4 -12 -2 -32 3 -45 5
-13 83 -101 175 -195 l165 -171 4 -984 c3 -1094 -1 -1025 72 -1168 62 -122
158 -216 280 -276 94 -47 172 -65 275 -65 73 0 90 3 108 20 31 29 38 66 19
106 -18 37 -20 38 -159 52 -208 22 -352 143 -403 339 -13 49 -15 202 -15 1052
l0 995 -155 156 c-85 86 -155 160 -155 165 0 5 70 79 155 165 l155 156 0 995
c0 1086 -2 1053 58 1163 38 70 119 147 196 185 52 25 87 34 163 42 136 14 141
16 158 49 21 41 19 64 -11 99 -25 30 -27 31 -112 30 -48 -1 -105 -5 -127 -9z"/>
<path d="M11319 5877 c-43 -33 -51 -96 -16 -131 20 -19 38 -24 116 -30 102 -8
176 -30 240 -71 99 -62 180 -181 201 -294 6 -34 10 -421 10 -1039 l0 -985 133
-136 c73 -75 143 -148 157 -164 l24 -27 -157 -158 -157 -158 0 -995 c0 -1086
2 -1053 -58 -1163 -40 -73 -120 -149 -198 -186 -52 -25 -87 -34 -168 -42 -55
-5 -112 -15 -126 -22 -48 -23 -52 -95 -8 -136 18 -17 35 -20 108 -20 104 0
180 18 280 67 104 50 223 169 273 273 70 144 67 89 67 1170 l0 975 177 184
c158 164 177 187 177 217 0 31 -17 52 -177 212 l-177 178 0 980 c0 1086 3
1030 -67 1174 -27 57 -56 95 -117 155 -93 92 -167 136 -282 165 -88 23 -230
27 -255 7z"/>
<path d="M4000 2880 l0 -2280 95 0 95 0 0 2185 0 2185 158 0 157 0 979 -1115
c538 -613 981 -1115 985 -1114 3 0 389 437 856 970 468 534 907 1035 978 1115
l128 144 1424 0 1425 0 0 95 0 95 -3110 0 -3110 0 0 -95 0 -95 1556 -2 1556
-3 -847 -965 c-465 -531 -852 -965 -858 -965 -6 0 -430 477 -942 1060 l-931
1060 -297 3 -297 2 0 -2280z"/>
<path d="M8922 3868 l3 -453 900 0 900 0 3 92 3 93 -808 2 -808 3 -3 263 -2
262 1085 0 1085 0 0 95 0 95 -1180 0 -1180 0 2 -452z"/>
<path d="M4910 2138 l0 -1538 95 0 95 0 2 1282 3 1283 660 -750 c363 -412 669
-761 681 -774 l20 -24 660 749 c362 412 669 760 681 774 l22 25 1 -1182 0
-1183 -983 0 c-541 0 -1092 -3 -1225 -7 l-242 -6 0 -89 0 -88 1865 0 1865 0 0
980 0 980 810 0 810 0 0 95 0 95 -905 0 -905 0 0 -980 0 -980 -450 0 -450 0
-2 1431 -3 1432 -769 -874 c-423 -481 -772 -875 -776 -877 -6 -2 -1490 1674
-1547 1747 -10 13 -12 -311 -13 -1521z"/>
</g>
</svg>
